# AST/ASF file generated using VICON BodyLanguage
# -----------------------------------------------
:version 1.10
:name VICON
:units
  mass 1.0
  length 0.45
  angle deg
:documentation
   .ast/.asf automatically generated from VICON data using
   VICON BodyBuilder and BodyLanguage model FoxedUp or BRILLIANT.MOD
:root
   order TX TY TZ RX RY RZ
   axis XYZ
   position 0 0 0  
   orientation 0 0 0 
:bonedata
  begin
     id 1 
     name lhipjoint
     direction 0.627457 -0.725269 0.283342 
     length 2.53237 
     axis 0 0 0  XYZ
  end
  begin
     id 2 
     name lfemur
     direction 0.34202 -0.939693 0  
     length 7.32496  
     axis 0 0 20  XYZ
    dof rx ry rz
    limits (-160.0 20.0)
           (-70.0 70.0)
           (-60.0 70.0)
  end
  begin
     id 3 
     name ltibia
     direction 0.34202 -0.939693 0   
     length 7.69674   
     axis 0 0 20   XYZ
    dof rx
    limits (-10.0 170.0)
  end
  begin
     id 4 
     name lfoot
     direction 0.127289 -0.349722 0.928166   
     length 1.8612   
     axis -90 7.62852e-016 20   XYZ
    dof rx rz
    limits (-45.0 90.0)
           (-70.0 20.0)
  end
  begin
     id 5 
     name ltoes
     direction 1.53561e-011 -4.21864e-011 1   
     length 0.925608   
     axis -90 7.62852e-016 20   XYZ
    dof rx
    limits (-90.0 20.0)
  end
  begin
     id 6 
     name rhipjoint
     direction -0.609094 -0.738725 0.288599   
     length 2.48624  
     axis 0 0 0  XYZ 
  end
  begin
     id 7 
     name rfemur
     direction -0.34202 -0.939693 0   
     length 7.44259   
     axis 0 0 -20   XYZ
    dof rx ry rz
    limits (-160.0 20.0)
           (-70.0 70.0)
           (-70.0 60.0)
  end
  begin
     id 8 
     name rtibia
     direction -0.34202 -0.939693 0   
     length 7.7781   
     axis 0 0 -20   XYZ
    dof rx
    limits (-10.0 170.0)
 end
 begin
     id 9 
     name rfoot
     direction -0.107015 -0.294021 0.949789   
     length 2.14741  
     axis -90 -7.62852e-016 -20   XYZ
    dof rx rz
    limits (-45.0 90.0)
           (-20.0 70.0)
  end
  begin
     id 10 
     name rtoes
     direction -1.53497e-011 -4.21924e-011 1   
     length 1.0706   
     axis -90 -7.62852e-016 -20   XYZ
    dof rx
    limits (-90.0 20.0)
  end
  begin
     id 11 
     name lowerback
     direction -0.0142066 0.998112 -0.0597545   
     length 1.86627   
     axis 0 0 0   XYZ
    dof rx ry rz
    limits (-20.0 45.0)
           (-30.0 30.0)
           (-30.0 30.0)
  end
  begin
     id 12 
     name upperback
     direction 0.00547294 0.999744 0.0219437   
     length 1.86272   
     axis 0 0 0   XYZ
    dof rx ry rz
    limits (-20.0 45.0)
           (-30.0 30.0)
           (-30.0 30.0)
  end
  begin
     id 13 
     name thorax
     direction 0.0116162 0.998704 0.0495538   
     length 1.8703   
     axis 0 0 0   XYZ
    dof rx ry rz
    limits (-20.0 45.0)
           (-30.0 30.0)
           (-30.0 30.0)
  end
  begin
     id 14 
     name lowerneck
     direction -0.0106574 0.998739 0.0490586   
     length 1.8074   
     axis 0 0 0   XYZ
    dof rx ry rz
    limits (-20.0 45.0)
           (-30.0 30.0)
           (-30.0 30.0)
  end
  begin
     id 15 
     name upperneck
     direction 0.030527 0.976587 -0.212944   
     length 1.80681   
     axis 0 0 0   XYZ
    dof rx ry rz
    limits (-20.0 45.0)
           (-30.0 30.0)
           (-30.0 30.0)
  end
  begin
     id 16
     name head
     direction 0.00869225 0.997035 -0.0764531  
     length 1.8313  
     axis 0 0 0   XYZ
    dof rx ry rz
    limits (-20.0 45.0)
           (-30.0 30.0)
           (-30.0 30.0)
  end
  begin
     id 17 
     name lclavicle
     direction 0.915958 0.399447 0.0382386  
     length 3.78965  
     axis 0 0 0   XYZ
    dof ry rz
    limits (-20.0 10.0)
           (0.0 20.0)
  end
  begin
     id 18 
     name lhumerus
     direction 1 -4.48967e-011 3.19303e-027   
     length 4.78095   
     axis -180 -30 -90   XYZ
    dof rx ry rz
    limits (-60.0 90.0)
           (-90.0 90.0)
           (-90.0 90.0)
  end
  begin
     id 19
     name lradius
     direction 1 -4.48967e-011 -3.77974e-027   
     length 3.58615   
     axis -180 -30 -90   XYZ
    dof rx
    limits (-10.0 170.0)
  end
  begin
     id 20
     name lwrist
     direction 1 -4.48927e-011 1.2807e-027   
     length 1.79307   
     axis 1.91374e-015 90 90   XYZ
    dof ry
    limits (-180.0 0.0)
 end
  begin
     id 21 
     name lhand
     direction 1 -4.49036e-011 2.5614e-027   
     length 0.659812   
     axis -1.63439e-015 90 90   XYZ
    dof rx rz
    limits (-90.0 90.0)
           (-45.0 45.0)
  end
  begin
     id 22 
     name lfingers
     direction 1 -4.49052e-011 5.1228e-027   
     length 0.531957   
     axis -3.26879e-015 90 90   XYZ
    dof rx
    limits (0.0 90.0)
  end
  begin
     id 23
     name lthumb
     direction 0.707107 -6.35012e-011 0.707107   
     length 0.763787   
     axis -90 45 2.85299e-015   XYZ
    dof rx rz
    limits (-45.0 45.0)
           (-45.0 45.0)
  end
  begin
     id 24 
     name rclavicle
     direction -0.895351 0.435135 0.0948887   
     length 3.70497  
     axis 0 0 0   XYZ 
    dof ry rz
    limits (-10.0 20.0)
           (-20.0 0.0)
  end
  begin
     id 25 
     name rhumerus
     direction -1 -4.48971e-011 2.38946e-027  
     length 4.48913   
     axis -180 30 90   XYZ
    dof rx ry rz
    limits (-90.0 60.0)
           (-90.0 90.0)
           (-90.0 90.0)
  end
  begin
     id 26 
     name rradius
     direction -1 -4.4895e-011 4.38668e-027   
     length 3.7051   
     axis -180 30 90   XYZ
    dof rx
    limits (-10.0 170.0)
  end
  begin
     id 27 
     name rwrist
     direction -1 -4.49007e-011 1.2807e-027   
     length 1.85255   
     axis 1.91374e-015 -90 -90   XYZ
    dof ry
    limits (-180.0 0.0)
  end
  begin
     id 28
     name rhand
     direction -1 -4.48851e-011 2.5614e-027   
     length 0.449136   
     axis -1.63439e-015 -90 -90   XYZ
    dof rx rz
    limits (-90.0 90.0)
           (-45.0 45.0)
  end
  begin
     id 29
     name rfingers
     direction -1 -4.49128e-011 5.1228e-027   
     length 0.362105   
     axis -3.26879e-015 -90 -90   XYZ
    dof rx
    limits (0.0 90.0)
  end
  begin
     id 30
     name rthumb
     direction -0.707107 -6.34851e-011 0.707107   
     length 0.519912   
     axis -90 -45 -2.85299e-015   XYZ
    dof rx rz
    limits (-45.0 45.0)
           (-45.0 45.0)
  end
:hierarchy
  begin
    root lhipjoint rhipjoint lowerback
    lhipjoint lfemur
    lfemur ltibia
    ltibia lfoot
    lfoot ltoes
    rhipjoint rfemur
    rfemur rtibia
    rtibia rfoot
    rfoot rtoes
    lowerback upperback
    upperback thorax
    thorax lowerneck lclavicle rclavicle
    lowerneck upperneck
    upperneck head
    lclavicle lhumerus
    lhumerus lradius
    lradius lwrist
    lwrist lhand lthumb
    lhand lfingers
    rclavicle rhumerus
    rhumerus rradius
    rradius rwrist
    rwrist rhand rthumb
    rhand rfingers
  end

#!OML:ASF I:\Actors\actors\Patient Classification 2\Patient 1\Session 1\actor1.ASF
:FULLY-SPECIFIED
:DEGREES
32
root -0.623511 18.6941 5.5795 2.66289 -5.99628 -0.404897
lowerback 0.840022 1.71466 -2.06372
upperback -2.73773 2.2401 0.138083
thorax -3.37005 1.1738 1.21135
lowerneck -12.918 -2.50846 -1.31771
upperneck 26.8516 -4.27315 3.50508
head 10.8883 -1.67152 0.927441
rclavicle 2.60222e-014 1.03368e-014
rhumerus -48.8258 0.289231 -86.8265
rradius 43.0364
rwrist 15.7893
rhand -11.9528 -29.5433
rfingers 7.12502
rthumb 14.1025 -59.0447
lclavicle 2.60222e-014 1.03368e-014
lhumerus -43.2377 -2.97871 90.7934
lradius 38.254
lwrist -0.653959
lhand -13.4851 -31.3315
lfingers 7.12502
lthumb 12.6256 -1.73306
rfemur 3.55975 12.0211 13.6383
rtibia 7.95139e-015
rfoot -18.6593 -15.2368
rtoes -6.96469
lfemur -4.63461 -3.67737 -14.8048
ltibia 21.0314
lfoot -25.3216 17.5159
ltoes -52.8755
33
root -0.623251 18.694 5.57702 2.65535 -5.97828 -0.391034
lowerback 0.850921 1.69557 -2.09022
upperback -2.73285 2.21389 0.143735
thorax -3.37146 1.16149 1.23278
lowerneck -12.9002 -2.49752 -1.31209
upperneck 26.8337 -4.25607 3.49753
head 10.8772 -1.66461 0.926172
rclavicle 8.11911e-015 -2.38542e-015
rhumerus -48.7866 0.337511 -86.8415
rradius 43.0009
rwrist 15.76
rhand -12.0023 -29.5821
rfingers 7.12502
rthumb 14.0548 -59.0868
lclavicle 8.11911e-015 -2.38542e-015
lhumerus -43.1895 -2.9473 90.7763
lradius 38.2137
lwrist -0.696555
lhand -13.5157 -31.3559
lfingers 7.12502
lthumb 12.596 -1.75565
rfemur 3.55981 12.0034 13.6213
rtibia -1.59028e-015
rfoot -18.6887 -15.2221
rtoes -6.7905
lfemur -4.64863 -3.70092 -14.8226
ltibia 21.0404
lfoot -25.2746 17.5583
ltoes -52.9236
34
root -0.623633 18.6943 5.57524 2.64628 -5.991 -0.40729
lowerback 0.857079 1.6968 -2.08935
upperback -2.72887 2.21585 0.15734
thorax -3.37143 1.16261 1.24607
lowerneck -12.8574 -2.50025 -1.30959
upperneck 26.8048 -4.25838 3.49388
head 10.8578 -1.66687 0.924538
rclavicle -1.22128e-014 -4.77083e-015
rhumerus -48.7636 0.375982 -86.848
rradius 42.9749
rwrist 15.7258
rhand -12.0257 -29.6417
rfingers 7.12502
rthumb 14.0322 -59.1481
lclavicle -1.22128e-014 -4.77083e-015
lhumerus -43.175 -2.91536 90.7602
lradius 38.2064
lwrist -0.779539
lhand -13.5277 -31.3737
lfingers 7.12502
lthumb 12.5845 -1.77274
rfemur 3.56213 12.018 13.6408
rtibia 4.77083e-015
rfoot -18.7117 -15.1959
rtoes -6.54111
lfemur -4.65119 -3.71204 -14.806
ltibia 21.054
lfoot -25.266 17.5792
ltoes -52.9191
35
root -0.6237 18.6943 5.57333 2.65291 -6.01312 -0.44692
lowerback 0.858613 1.70963 -2.05162
upperback -2.73273 2.23407 0.163154
thorax -3.37568 1.17085 1.2301
lowerneck -12.8289 -2.50007 -1.29278
upperneck 26.8032 -4.26471 3.50259
head 10.8515 -1.66742 0.924316
rclavicle -1.16227e-014 -8.05078e-015
rhumerus -48.7549 0.337843 -86.8372
rradius 42.955
rwrist 15.7394
rhand -12.0021 -29.6733
rfingers 7.12502
rthumb 14.055 -59.178
lclavicle -1.16227e-014 -8.05078e-015
lhumerus -43.1815 -2.91995 90.7462
lradius 38.232
lwrist -0.801296
lhand -13.5282 -31.4139
lfingers 7.12502
lthumb 12.584 -1.81288
rfemur 3.54556 12.0415 13.6851
rtibia -2.22639e-014
rfoot -18.6876 -15.2182
rtoes -6.77188
lfemur -4.66287 -3.6968 -14.7575
ltibia 21.0631
lfoot -25.2858 17.5513
ltoes -52.8723
36
root -0.623029 18.6946 5.57127 2.65696 -6.01023 -0.471842
lowerback 0.853074 1.70051 -2.03698
upperback -2.72323 2.22313 0.185629
thorax -3.36262 1.16516 1.24583
lowerneck -12.8648 -2.48281 -1.30919
upperneck 26.8567 -4.23835 3.50253
head 10.8783 -1.6558 0.930342
rclavicle 1.81888e-014 2.98177e-016
rhumerus -48.7244 0.34354 -86.8153
rradius 42.9348
rwrist 15.77
rhand -11.9715 -29.6017
rfingers 7.12502
rthumb 14.0845 -59.1044
lclavicle 1.81888e-014 2.98177e-016
lhumerus -43.1491 -2.8988 90.7573
lradius 38.2179
lwrist -0.75752
lhand -13.5605 -31.454
lfingers 7.12502
lthumb 12.5529 -1.85111
rfemur 3.53507 12.0397 13.7118
rtibia 1.43125e-014
rfoot -18.659 -15.2472
rtoes -7.08205
lfemur -4.67599 -3.70251 -14.7288
ltibia 21.0713
lfoot -25.3015 17.5439
ltoes -52.822
37
root -0.622154 18.695 5.56955 2.65012 -5.99515 -0.468886
lowerback 0.856785 1.69065 -2.04281
upperback -2.72007 2.2101 0.196922
thorax -3.36164 1.15895 1.26117
lowerneck -12.865 -2.47685 -1.29662
upperneck 26.9084 -4.22425 3.46329
head 10.896 -1.65211 0.916078
rclavicle -2.79355e-014 2.5842e-015
rhumerus -48.7189 0.404145 -86.8377
rradius 42.9379
rwrist 15.7233
rhand -11.8704 -29.605
rfingers 7.12502
rthumb 14.1819 -59.1009
lclavicle -2.79355e-014 2.5842e-015
lhumerus -43.1293 -2.89415 90.7642
lradius 38.1789
lwrist -0.716586
lhand -13.5576 -31.4799
lfingers 7.12502
lthumb 12.5557 -1.8772
rfemur 3.53942 12.0254 13.7075
rtibia 0
rfoot -18.6512 -15.244
rtoes -7.05404
lfemur -4.68129 -3.71791 -14.7342
ltibia 21.0823
lfoot -25.3095 17.5412
ltoes -52.8054
38
root -0.621353 18.6962 5.56829 2.6601 -5.98871 -0.457591
lowerback 0.85182 1.69265 -2.03931
upperback -2.72959 2.21239 0.180267
thorax -3.36795 1.15988 1.24198
lowerneck -12.862 -2.48388 -1.26776
upperneck 26.9461 -4.24526 3.4699
head 10.9097 -1.6575 0.910906
rclavicle 2.37175e-014 -6.95746e-016
rhumerus -48.6983 0.417419 -86.883
rradius 42.9167
rwrist 15.6761
rhand -11.7391 -29.6587
rfingers 7.12502
rthumb 14.3084 -59.1457
lclavicle 2.37175e-014 -6.95746e-016
lhumerus -43.1384 -2.92028 90.7361
lradius 38.1767
lwrist -0.729211
lhand -13.5038 -31.4978
lfingers 7.12502
lthumb 12.6075 -1.89821
rfemur 3.52001 12.0173 13.6895
rtibia -1.59028e-014
rfoot -18.5707 -15.2932
rtoes -7.43733
lfemur -4.70181 -3.7261 -14.7445
ltibia 21.0863
lfoot -25.3219 17.5202
ltoes -52.7492
39
root -0.621111 18.6963 5.56719 2.67452 -5.99385 -0.452803
lowerback 0.831882 1.68956 -2.04188
upperback -2.7258 2.20862 0.179079
thorax -3.35268 1.1579 1.24306
lowerneck -12.9342 -2.4845 -1.2751
upperneck 27.0077 -4.25298 3.49011
head 10.9482 -1.6575 0.917768
rclavicle -1.09829e-014 6.26172e-015
rhumerus -48.6525 0.407891 -86.887
rradius 42.8778
rwrist 15.7195
rhand -11.7052 -29.6072
rfingers 7.12502
rthumb 14.3411 -59.0919
lclavicle -1.09829e-014 6.26172e-015
lhumerus -43.1383 -2.92591 90.7216
lradius 38.209
lwrist -0.733053
lhand -13.46 -31.5196
lfingers 7.12502
lthumb 12.6498 -1.92267
rfemur 3.49639 12.0206 13.6786
rtibia -1.27222e-014
rfoot -18.559 -15.2839
rtoes -7.35031
lfemur -4.72491 -3.72095 -14.749
ltibia 21.0823
lfoot -25.2925 17.5496
ltoes -52.766
40
root -0.621042 18.6946 5.56552 2.66805 -5.98159 -0.437095
lowerback 0.829569 1.67976 -2.05139
upperback -2.722 2.19542 0.180284
thorax -3.34737 1.15151 1.25029
lowerneck -12.9672 -2.47656 -1.26181
upperneck 27.047 -4.23648 3.45416
head 10.9678 -1.65198 0.90443
rclavicle -4.47266e-015 5.66536e-015
rhumerus -48.654 0.41108 -86.8832
rradius 42.886
rwrist 15.7192
rhand -11.7377 -29.5381
rfingers 7.12502
rthumb 14.3098 -59.025
lclavicle -4.47266e-015 5.66536e-015
lhumerus -43.141 -2.89823 90.7111
lradius 38.2396
lwrist -0.738293
lhand -13.443 -31.5364
lfingers 7.12502
lthumb 12.6662 -1.94043
rfemur 3.50159 12.0083 13.6626
rtibia -1.27222e-014
rfoot -18.6295 -15.2158
rtoes -6.85503
lfemur -4.72709 -3.71973 -14.765
ltibia 21.0793
lfoot -25.2883 17.5475
ltoes -52.7792
41
root -0.621275 18.694 5.56355 2.65264 -5.95623 -0.426865
lowerback 0.851352 1.66828 -2.05918
upperback -2.72657 2.17929 0.17776
thorax -3.36399 1.14381 1.25193
lowerneck -12.9481 -2.46366 -1.23938
upperneck 27.0451 -4.21681 3.43058
head 10.9616 -1.64387 0.89492
rclavicle -3.22839e-014 5.86415e-015
rhumerus -48.6786 0.416214 -86.901
rradius 42.913
rwrist 15.6576
rhand -11.7806 -29.5381
rfingers 7.12502
rthumb 14.2685 -59.0279
lclavicle -3.22839e-014 5.86415e-015
lhumerus -43.1308 -2.86802 90.6819
lradius 38.2203
lwrist -0.78137
lhand -13.4553 -31.5248
lfingers 7.12502
lthumb 12.6543 -1.92819
rfemur 3.52037 11.9842 13.6576
rtibia 7.95139e-015
rfoot -18.6077 -15.234
rtoes -7.1535
lfemur -4.717 -3.74082 -14.7714
ltibia 21.0806
lfoot -25.3385 17.4949
ltoes -52.7379
